<svg width="90" height="90" viewBox="0 0 90 90" fill="none" xmlns="http://www.w3.org/2000/svg"><mask id="path-1-outside-1_1344_20618" maskUnits="userSpaceOnUse" x="6" y="7" width="80" height="82" fill="black"><rect fill="white" x="6" y="7" width="80" height="82"/><path fill-rule="evenodd" clip-rule="evenodd" d="M12 21.5611C12 16.8329 15.8329 13 20.5611 13H44.6047C49.3329 13 53.1658 16.8329 53.1658 21.5611V28.0984C53.9914 28.2127 54.8175 28.4154 55.6323 28.712L71.7901 34.5929C78.0103 36.8569 81.2175 43.7347 78.9535 49.9549L70.0118 74.5221C67.7479 80.7423 60.87 83.9495 54.6498 81.6855L38.4921 75.8046C33.1544 73.8618 30.0354 68.5216 30.6883 63.1149H20.5611C15.8329 63.1149 12 59.282 12 54.5538V21.5611Z"/></mask><path fill-rule="evenodd" clip-rule="evenodd" d="M12 21.5611C12 16.8329 15.8329 13 20.5611 13H44.6047C49.3329 13 53.1658 16.8329 53.1658 21.5611V28.0984C53.9914 28.2127 54.8175 28.4154 55.6323 28.712L71.7901 34.5929C78.0103 36.8569 81.2175 43.7347 78.9535 49.9549L70.0118 74.5221C67.7479 80.7423 60.87 83.9495 54.6498 81.6855L38.4921 75.8046C33.1544 73.8618 30.0354 68.5216 30.6883 63.1149H20.5611C15.8329 63.1149 12 59.282 12 54.5538V21.5611Z" fill="white"/><path d="M53.1658 28.0984H47.1658V33.3247L52.3428 34.0417L53.1658 28.0984ZM55.6323 28.712L57.6845 23.0738V23.0738L55.6323 28.712ZM71.7901 34.5929L69.738 40.2311L71.7901 34.5929ZM78.9535 49.9549L84.5917 52.007L78.9535 49.9549ZM70.0118 74.5221L64.3737 72.47L70.0118 74.5221ZM54.6498 81.6855L52.5977 87.3237L54.6498 81.6855ZM38.4921 75.8046L40.5442 70.1664H40.5442L38.4921 75.8046ZM30.6883 63.1149L36.6451 63.8343L37.4565 57.1149H30.6883V63.1149ZM20.5611 7C12.5192 7 6 13.5192 6 21.5611H18C18 20.1466 19.1466 19 20.5611 19V7ZM44.6047 7H20.5611V19H44.6047V7ZM59.1658 21.5611C59.1658 13.5192 52.6466 7 44.6047 7V19C46.0192 19 47.1658 20.1466 47.1658 21.5611H59.1658ZM59.1658 28.0984V21.5611H47.1658V28.0984H59.1658ZM57.6845 23.0738C56.4694 22.6316 55.2311 22.3271 53.9888 22.1551L52.3428 34.0417C52.7516 34.0983 53.1656 34.1992 53.5802 34.3501L57.6845 23.0738ZM73.8422 28.9548L57.6845 23.0738L53.5802 34.3501L69.738 40.2311L73.8422 28.9548ZM84.5917 52.007C87.989 42.6729 83.1763 32.3521 73.8422 28.9548L69.738 40.2311C72.8444 41.3617 74.446 44.7964 73.3154 47.9028L84.5917 52.007ZM75.65 76.5742L84.5917 52.007L73.3154 47.9028L64.3737 72.47L75.65 76.5742ZM52.5977 87.3237C61.9318 90.721 72.2527 85.9083 75.65 76.5742L64.3737 72.47C63.243 75.5763 59.8083 77.178 56.7019 76.0474L52.5977 87.3237ZM36.4399 81.4427L52.5977 87.3237L56.7019 76.0474L40.5442 70.1664L36.4399 81.4427ZM24.7316 62.3955C23.7518 70.5094 28.423 78.5248 36.4399 81.4427L40.5442 70.1664C37.8858 69.1988 36.3191 66.5339 36.6451 63.8343L24.7316 62.3955ZM20.5611 69.1149H30.6883V57.1149H20.5611V69.1149ZM6 54.5538C6 62.5957 12.5192 69.1149 20.5611 69.1149V57.1149C19.1466 57.1149 18 55.9682 18 54.5538H6ZM6 21.5611V54.5538H18V21.5611H6Z" fill="white" mask="url(#path-1-outside-1_1344_20618)"/><rect x="44.2115" y="24.6392" width="41.1658" height="50.1149" rx="11.9855" transform="rotate(20 44.2115 24.6392)" fill="#C8DEFF"/><rect x="8.8421" y="10.0264" width="47.1658" height="56.1149" rx="11.5611" fill="url(#paint0_linear_1344_20618)" stroke="white" stroke-width="6"/><g clip-path="url(#clip0_1344_20618)"><rect x="12" y="13" width="41.1658" height="50.1149" rx="8.5611" fill="url(#paint1_linear_1344_20618)"/><path d="M27.9505 26.2197C28.7717 24.5162 31.1977 24.5162 32.0189 26.2197L33.8655 30.0503C34.0874 30.5106 34.4588 30.882 34.9191 31.1039L38.7497 32.9505C40.4532 33.7717 40.4532 36.1977 38.7497 37.0189L34.9191 38.8655C34.4588 39.0874 34.0874 39.4588 33.8655 39.9191L32.0189 43.7497C31.1977 45.4532 28.7717 45.4532 27.9505 43.7497L26.1039 39.9191C25.882 39.4588 25.5106 39.0874 25.0503 38.8655L21.2197 37.0189C19.5162 36.1977 19.5162 33.7717 21.2197 32.9505L25.0503 31.1039C25.5106 30.882 25.882 30.5106 26.1039 30.0503L27.9505 26.2197Z" fill="white"/><path d="M40.929 42.4201C41.7498 42.0404 42.6459 42.7774 42.4317 43.6561L41.9501 45.632C41.8922 45.8694 41.9166 46.1195 42.0192 46.3413L42.8731 48.1871C43.2528 49.008 42.5158 49.9041 41.6371 49.6899L39.6611 49.2082C39.4237 49.1503 39.1737 49.1747 38.9519 49.2773L37.106 50.1312C36.2852 50.511 35.3891 49.7739 35.6033 48.8953L36.085 46.9193C36.1428 46.6819 36.1185 46.4318 36.0159 46.2101L35.1619 44.3642C34.7822 43.5434 35.5192 42.6473 36.3979 42.8614L38.3739 43.3431C38.6113 43.401 38.8613 43.3766 39.0831 43.274L40.929 42.4201Z" fill="white"/></g><defs><linearGradient id="paint0_linear_1344_20618" x1="54.7547" y1="63.6637" x2="-8.82441" y2="22.6909" gradientUnits="userSpaceOnUse"><stop offset="0.0520833" stop-color="#FC55FF"/><stop offset="0.442708" stop-color="#268AFF"/><stop offset="0.890625" stop-color="#26F663"/></linearGradient><linearGradient id="paint1_linear_1344_20618" x1="54.9126" y1="63.6373" x2="-8.66651" y2="22.6645" gradientUnits="userSpaceOnUse"><stop offset="0.0520833" stop-color="#FC55FF"/><stop offset="0.442708" stop-color="#268AFF"/><stop offset="0.890625" stop-color="#26F663"/></linearGradient><clipPath id="clip0_1344_20618"><rect x="12" y="13" width="41.1658" height="50.1149" rx="8" fill="white"/></clipPath></defs></svg>